<svg xmlns="http://www.w3.org/2000/svg" width="25" height="25">
    <path class="patha" fill="#84c8e8"
        d="M17.692 12.004v-.037c0-.866-.704-1.57-1.57-1.57h-1.473v-.792c0-.224.219-.51.324-.647l.015-.02a3.122 3.122 0 00.635-1.917 3.162 3.162 0 00-3.158-3.158A3.162 3.162 0 009.306 7.02c0 .846.32 1.635.9 2.22.038.04.19.298.19.59v.565H8.878c-.866 0-1.57.705-1.57 1.57v.038c0 .636.38 1.185.926 1.431a5 5 0 00-.771 2.673 5.035 5.035 0 005.03 5.03 5.035 5.035 0 005.028-5.03 5 5 0 00-.767-2.667c.552-.244.938-.796.938-1.437zm-5.2 7.79a3.69 3.69 0 01-3.686-3.686c0-.98.385-1.873 1.012-2.534h.95c.386.563 1.031.94 1.745.94h.02c.713 0 1.358-.377 1.743-.94h.89a3.672 3.672 0 011.013 2.534 3.69 3.69 0 01-3.687 3.686z">
    </path>
    <path class="pathb" fill="#84c8e8" d=""></path>
</svg>