<svg viewBox="0 0 25 25" width="100%" xmlns="http://www.w3.org/2000/svg">
  <path fill="#84c8e8" d="M13.447 16.207c0 .21-.424.379-.947.379-.523 0-.946-.17-.946-.379 0-.21.423-.379.946-.379.523 0 .947.17.947.38zm7.194-.994c0 1.113-.7 2.06-1.662 2.374a7.288 7.288 0 01-6.467 3.898 7.283 7.283 0 01-6.463-3.889c-.976-.306-1.69-1.257-1.69-2.382 0-.586.196-1.125.52-1.55v-3.247a5.301 5.301 0 015.302-5.3h.213l1.989-1.562a.19.19 0 01.302.187l-.286 1.374h2.42a5.301 5.301 0 015.301 5.301v3.244c.325.426.521.966.521 1.552zm-1.514 0c0-.534-.378-.97-.848-.97-.13.222-.278.435-.447.639.103-.353.172-.71.21-1.072-.454-.435-.85-1.163-1.06-2.035a4.844 4.844 0 01-.125-1.566c-.642 1.084-3.077 2.463-4.357 2.463-1.237 0-3.692-1.374-4.35-2.457a.055.055 0 00-.006.008c.042.468.007 1-.126 1.552-.209.872-.606 1.6-1.06 2.036.039.36.107.719.21 1.071a4.72 4.72 0 01-.447-.639c-.47 0-.847.435-.847.97 0 .536.378.97.849.97a.76.76 0 00.33-.075c.77 2.245 2.92 3.862 5.459 3.862a5.757 5.757 0 005.456-3.856c.096.043.199.07.309.07.472 0 .85-.435.85-.97zm-9.199-2.179a.853.853 0 000 1.704.852.852 0 000-1.704zm5.144 0a.853.853 0 000 1.704.852.852 0 000-1.704z"></path>
  <path fill="#84c8e8" d=""></path>
  </svg>