<svg xmlns="http://www.w3.org/2000/svg" width="25" height="25">
    <path class="patha" fill="#2c65a0"
        d="M22.039 12.544l-1.379-2.39c-.256-.445-.883-.806-1.39-.806h-2.762c-.511 0-1.14.361-1.395.806l-.817 1.417-.562.973c-.25.445-.25 1.167 0 1.6l.273.479 1.106 1.912c.239.417.806.761 1.29.795a.122.122 0 0 0 .044.005c.017.006.039.006.061.006h2.763c.505 0 1.133-.361 1.39-.806l1.378-2.39c.25-.434.25-1.157 0-1.601zm-3.98 2.712h-.35c-.05 0-.095-.005-.145-.01-.478-.056-1.011-.39-1.24-.79l-.177-.311a1.394 1.394 0 0 1-.161-.473c-.073-.383-.017-.822.16-1.128l.179-.306c.155-.272.455-.517.789-.661.194-.09.4-.14.595-.14h.35c.517 0 1.14.362 1.395.801l.172.306c.256.444.256 1.167 0 1.6l-.083.15-.089.162c-.256.439-.878.8-1.395.8zm3.98-2.712l-1.379-2.39c-.256-.445-.883-.806-1.39-.806h-2.762c-.511 0-1.14.361-1.395.806l-.817 1.417-.562.973c-.25.445-.25 1.167 0 1.6l.273.479 1.106 1.912c.239.417.806.761 1.29.795a.122.122 0 0 0 .044.005c.017.006.039.006.061.006h2.763c.505 0 1.133-.361 1.39-.806l1.378-2.39c.25-.434.25-1.157 0-1.601zm-3.98 2.712h-.35c-.05 0-.095-.005-.145-.01-.478-.056-1.011-.39-1.24-.79l-.177-.311a1.394 1.394 0 0 1-.161-.473c-.073-.383-.017-.822.16-1.128l.179-.306c.155-.272.455-.517.789-.661.194-.09.4-.14.595-.14h.35c.517 0 1.14.362 1.395.801l.172.306c.256.444.256 1.167 0 1.6l-.083.15-.089.162c-.256.439-.878.8-1.395.8zm3.98-2.712l-1.379-2.39c-.256-.445-.883-.806-1.39-.806h-2.762c-.511 0-1.14.361-1.395.806l-.817 1.417-.562.973c-.25.445-.25 1.167 0 1.6l.273.479 1.106 1.912c.239.417.806.761 1.29.795a.122.122 0 0 0 .044.005c.017.006.039.006.061.006h2.763c.505 0 1.133-.361 1.39-.806l1.378-2.39c.25-.434.25-1.157 0-1.601zm-3.98 2.712h-.35c-.05 0-.095-.005-.145-.01-.478-.056-1.011-.39-1.24-.79l-.177-.311a1.394 1.394 0 0 1-.161-.473c-.073-.383-.017-.822.16-1.128l.179-.306c.155-.272.455-.517.789-.661.194-.09.4-.14.595-.14h.35c.517 0 1.14.362 1.395.801l.172.306c.256.444.256 1.167 0 1.6l-.083.15-.089.162c-.256.439-.878.8-1.395.8zm-1.345 4.013l-.512.295-1.884 1.09-.289.166a.704.704 0 0 1-.961-.261l-.034-.061-2.395-4.147c-.128-.228-.34-.372-.529-.4a.357.357 0 0 0-.189.017h-.005s-.006 0-.011.005c-.006 0-.017.006-.034.011a5.09 5.09 0 0 1-6.414-2.128.115.115 0 0 1-.033-.056 5.063 5.063 0 0 1-.24-4.48c.373-.884 1.001-1.667 1.852-2.234.01-.017.022-.023.033-.028.15-.089.322-.034.428.15l2.112 3.663a.514.514 0 0 0 .695.183l.623-.361 2.19-1.262a.513.513 0 0 0 .183-.7L9.916 6.34l-.728-1.262c-.106-.19-.067-.361.083-.445.011-.01.022-.016.033-.022a5.088 5.088 0 0 1 6.626 1.962c.011.022.028.04.039.061.3.517.495 1.067.595 1.623h-.667c-.523 0-1.157.373-1.412.817l-.356.618-.456.789-1.184 2.05a1.65 1.65 0 0 0-.194.868v.005c.006.278.072.55.194.762l1.996 3.446c.256.45.89.817 1.412.817h1.123a.703.703 0 0 1-.306.84z">
    </path>
    <path class="pathb" fill="#2c65a0" d=""></path>
</svg>