<?xml version="1.0" encoding="UTF-8" standalone="no"?>
<!-- Created with Inkscape (http://www.inkscape.org/) -->

<svg
   xmlns:dc="http://purl.org/dc/elements/1.1/"
   xmlns:cc="http://creativecommons.org/ns#"
   xmlns:rdf="http://www.w3.org/1999/02/22-rdf-syntax-ns#"
   xmlns:svg="http://www.w3.org/2000/svg"
   xmlns="http://www.w3.org/2000/svg"
   xmlns:sodipodi="http://sodipodi.sourceforge.net/DTD/sodipodi-0.dtd"
   xmlns:inkscape="http://www.inkscape.org/namespaces/inkscape"
   width="20mm"
   height="20mm"
   viewBox="0 0 70.866142 70.866141"
   id="svg2"
   version="1.1"
   inkscape:version="0.91 r13725"
   sodipodi:docname="pp-health(white).svg">
  <defs
     id="defs4" />
  <sodipodi:namedview
     id="base"
     pagecolor="#ffffff"
     bordercolor="#666666"
     borderopacity="1.0"
     inkscape:pageopacity="0.0"
     inkscape:pageshadow="2"
     inkscape:zoom="0.24748738"
     inkscape:cx="-781.01601"
     inkscape:cy="446.76332"
     inkscape:document-units="px"
     inkscape:current-layer="layer1"
     showgrid="false"
     inkscape:window-width="1276"
     inkscape:window-height="755"
     inkscape:window-x="4"
     inkscape:window-y="1"
     inkscape:window-maximized="1" />
  <metadata
     id="metadata7">
    <rdf:RDF>
      <cc:Work
         rdf:about="">
        <dc:format>image/svg+xml</dc:format>
        <dc:type
           rdf:resource="http://purl.org/dc/dcmitype/StillImage" />
        <dc:title></dc:title>
      </cc:Work>
    </rdf:RDF>
  </metadata>
  <g
     inkscape:label="Layer 1"
     inkscape:groupmode="layer"
     id="layer1"
     transform="translate(0,-981.49606)">
    <g
       id="g12182"
       transform="matrix(0.2370113,0,0,0.2370113,0,981.49594)"
       style="fill:#ffffff;fill-opacity:1">
      <g
         id="g12140"
         style="fill:#ffffff;fill-opacity:1">
        <path
           id="path12142"
           d="m 284.804,65.994 -86.539,0 0,-20.203 c 0,-12.84 -10.445,-23.285 -23.285,-23.285 l -50.959,0 c -12.84,0 -23.285,10.445 -23.285,23.285 l 0,20.203 -86.54,0 C 6.355,65.994 0,72.349 0,80.19 l 0,182.108 c 0,7.84 6.355,14.196 14.196,14.196 l 270.607,0 c 7.841,0 14.196,-6.357 14.196,-14.196 l 0,-182.108 C 299,72.349 292.645,65.994 284.804,65.994 Z m -160.069,-19.489 49.529,0 0,19.488 -49.529,0 0,-19.488 z M 149.5,257.244 c -47.496,0 -86,-38.503 -86,-86 0,-47.497 38.504,-86 86,-86 47.496,0 86,38.503 86,86 0,47.497 -38.504,86 -86,86 z"
           inkscape:connector-curvature="0"
           style="fill:#ffffff;fill-opacity:1" />
        <path
           id="path12144"
           d="m 192.9,150.94 -23.097,0 0,-23.098 c 0,-6.243 -5.061,-11.304 -11.304,-11.304 l -18,0 c -6.243,0 -11.304,5.061 -11.304,11.304 l 0,23.098 -23.098,0 c -6.243,0 -11.304,5.06 -11.304,11.304 l 0,18 c 0,6.243 5.061,11.304 11.304,11.304 l 23.098,0 0,23.098 c 0,6.243 5.061,11.304 11.304,11.304 l 18,0 c 6.243,0 11.304,-5.061 11.304,-11.304 l 0,-23.098 23.097,0 c 6.243,0 11.304,-5.061 11.304,-11.304 l 0,-18 c 0,-6.244 -5.061,-11.304 -11.304,-11.304 z"
           inkscape:connector-curvature="0"
           style="fill:#ffffff;fill-opacity:1" />
      </g>
      <g
         id="g12146"
         style="fill:#ffffff;fill-opacity:1" />
      <g
         id="g12148"
         style="fill:#ffffff;fill-opacity:1" />
      <g
         id="g12150"
         style="fill:#ffffff;fill-opacity:1" />
      <g
         id="g12152"
         style="fill:#ffffff;fill-opacity:1" />
      <g
         id="g12154"
         style="fill:#ffffff;fill-opacity:1" />
      <g
         id="g12156"
         style="fill:#ffffff;fill-opacity:1" />
      <g
         id="g12158"
         style="fill:#ffffff;fill-opacity:1" />
      <g
         id="g12160"
         style="fill:#ffffff;fill-opacity:1" />
      <g
         id="g12162"
         style="fill:#ffffff;fill-opacity:1" />
      <g
         id="g12164"
         style="fill:#ffffff;fill-opacity:1" />
      <g
         id="g12166"
         style="fill:#ffffff;fill-opacity:1" />
      <g
         id="g12168"
         style="fill:#ffffff;fill-opacity:1" />
      <g
         id="g12170"
         style="fill:#ffffff;fill-opacity:1" />
      <g
         id="g12172"
         style="fill:#ffffff;fill-opacity:1" />
      <g
         id="g12174"
         style="fill:#ffffff;fill-opacity:1" />
    </g>
  </g>
</svg>
