<svg width="50" height="46" viewBox="0 0 50 46" fill="none" xmlns="http://www.w3.org/2000/svg">
  <path
    d="M22.6856 43.6849C23.3075 44.3069 24.1334 45.5507 25.0102 45.5507C25.8768 45.5507 26.7435 44.2967 27.3552 43.6849L45.677 25.3631C48.4604 22.5797 49.9898 18.8786 50 14.9533C50 11.0177 48.4706 7.31665 45.6872 4.53321C42.9038 1.74977 39.2129 0.220404 35.2773 0.220404C31.4131 0.220404 27.7732 1.69879 25.0102 4.39047C22.237 1.68859 18.5869 0.200012 14.7125 0.200012C10.7871 0.200012 7.09625 1.72938 4.31281 4.50262C1.52936 7.28606 0 10.9871 0 14.9227C0 18.8481 1.53956 22.5491 4.323 25.3326L22.6856 43.6849Z"/>
  <path
    d="M23.3927 42.9778L23.3925 42.9776L5.03011 24.6255C5.03004 24.6254 5.02998 24.6253 5.02991 24.6253C2.43304 22.0283 1 18.5812 1 14.9227C1 11.2521 2.42416 7.80588 5.01914 5.2105C7.61575 2.62367 11.0529 1.20001 14.7125 1.20001C18.3255 1.20001 21.7254 2.5863 24.3124 5.10673L25.0102 5.78657L25.708 5.10677C28.284 2.59735 31.6733 1.2204 35.2773 1.2204C38.9475 1.2204 42.3841 2.64432 44.9801 5.24032C47.5753 7.83552 48.9997 11.2816 49 14.9521C48.9901 18.6139 47.5652 22.0607 44.9699 24.656L26.6481 42.9778C26.4901 43.1358 26.3206 43.3271 26.167 43.5005C26.146 43.5242 26.1253 43.5476 26.1049 43.5705C25.9243 43.7739 25.7531 43.9633 25.5815 44.13C25.4078 44.2987 25.2621 44.4158 25.1431 44.4869C25.064 44.5342 25.0205 44.5469 25.0072 44.55C24.9832 44.5441 24.8129 44.4928 24.4548 44.1394C24.287 43.9738 24.12 43.7856 23.9404 43.5803C23.9252 43.563 23.9099 43.5454 23.8943 43.5275C23.7372 43.3477 23.5609 43.146 23.3927 42.9778Z"
    stroke-opacity="0.56"
    stroke-width="2"/>
</svg>
