<?xml version="1.0" encoding="UTF-8" standalone="no"?>
<!-- Created with Inkscape (http://www.inkscape.org/) -->

<svg
   width="9.7552738mm"
   height="9.7552738mm"
   viewBox="0 0 9.7552743 9.7552739"
   version="1.1"
   id="svg5"
   sodipodi:docname="2022 (Icon).svg"
   inkscape:export-filename="/Users/kyleunderhill/Desktop/3w.png"
   inkscape:export-xdpi="300"
   inkscape:export-ydpi="300"
   inkscape:version="1.1.1 (c3084ef, 2021-09-22)"
   xmlns:inkscape="http://www.inkscape.org/namespaces/inkscape"
   xmlns:sodipodi="http://sodipodi.sourceforge.net/DTD/sodipodi-0.dtd"
   xmlns="http://www.w3.org/2000/svg"
   xmlns:svg="http://www.w3.org/2000/svg">
  <sodipodi:namedview
     id="namedview7"
     pagecolor="#656565"
     bordercolor="#666666"
     borderopacity="1.0"
     inkscape:pageshadow="2"
     inkscape:pageopacity="0"
     inkscape:pagecheckerboard="true"
     inkscape:document-units="mm"
     showgrid="false"
     inkscape:snap-global="false"
     inkscape:zoom="1.1684839"
     inkscape:cx="-80.018218"
     inkscape:cy="61.190402"
     inkscape:window-width="1920"
     inkscape:window-height="1027"
     inkscape:window-x="0"
     inkscape:window-y="25"
     inkscape:window-maximized="0"
     inkscape:current-layer="layer1"
     fit-margin-top="0"
     fit-margin-left="0"
     fit-margin-right="0"
     fit-margin-bottom="0"
     inkscape:snap-bbox="true"
     inkscape:snap-bbox-midpoints="true"
     inkscape:bbox-nodes="true"
     inkscape:snap-bbox-edge-midpoints="true"
     inkscape:snap-intersection-paths="true"
     inkscape:object-paths="true"
     inkscape:snap-smooth-nodes="true" />
  <defs
     id="defs2" />
  <g
     inkscape:groupmode="layer"
     id="layer2"
     inkscape:label="Base"
     transform="translate(-313.51452,-453.98109)" />
  <g
     inkscape:label="Layer 1"
     inkscape:groupmode="layer"
     id="layer1"
     transform="translate(-99.475085,-554.78337)">
    <circle
       style="opacity:0.933981;fill:#605df8;fill-opacity:1;stroke:none;stroke-width:1.08112;stroke-linecap:round;stroke-linejoin:round;stroke-miterlimit:4;stroke-dasharray:none;stroke-opacity:1;paint-order:fill markers stroke"
       id="circle104181"
       cx="104.35272"
       cy="559.66101"
       r="4.8776369"
       inkscape:export-filename="/Users/kyleunderhill/Desktop/2022 Logo/Icon(32).png"
       inkscape:export-xdpi="83.319031"
       inkscape:export-ydpi="83.319031" />
    <path
       d="m 101.11919,560.85434 c 0,0 0.0226,-0.0475 0.0652,-0.13681 0.0435,-0.0832 0.10417,-0.2223 0.18712,-0.36699 0.0844,-0.13736 0.18738,-0.33287 0.31115,-0.49196 0.12261,-0.17529 0.26582,-0.34261 0.42635,-0.48737 0.16041,-0.15062 0.33892,-0.26054 0.52923,-0.336 0.18981,-0.0641 0.3924,-0.0976 0.59699,-0.065 0.20464,0.0272 0.41231,0.0972 0.61688,0.19339 0.20517,0.0908 0.40627,0.21076 0.60442,0.30378 0.19737,0.10311 0.39182,0.17898 0.5817,0.22772 0.19029,0.0466 0.37614,0.0466 0.55753,0.011 0.1814,-0.0298 0.357,-0.12023 0.52502,-0.22009 0.16744,-0.11121 0.32717,-0.23859 0.47411,-0.38323 0.14786,-0.13699 0.28204,-0.29391 0.40321,-0.42641 0.12065,-0.14564 0.22592,-0.27277 0.31265,-0.377 0.17194,-0.22969 0.27551,-0.34777 0.27551,-0.34777 0,0 -0.0769,0.23948 -0.22072,0.63536 -0.0737,0.18965 -0.16409,0.42009 -0.27233,0.66815 -0.11029,0.23834 -0.2364,0.50572 -0.38306,0.75694 -0.14576,0.25628 -0.31124,0.49817 -0.49293,0.71528 -0.18271,0.2032 -0.38143,0.39245 -0.5921,0.49477 -0.20962,0.10864 -0.43053,0.16811 -0.64889,0.14234 -0.21911,-0.0129 -0.43588,-0.0967 -0.64588,-0.19667 -0.20949,-0.10901 -0.41271,-0.23578 -0.60754,-0.36053 -0.1953,-0.12061 -0.38367,-0.23409 -0.566,-0.32006 -0.18239,-0.0873 -0.35845,-0.13367 -0.52757,-0.16056 -0.0843,-0.009 -0.16705,-0.0184 -0.24742,-0.009 -0.0804,-0.002 -0.15839,0.0147 -0.23373,0.0295 -0.0757,0.007 -0.14775,0.0411 -0.21733,0.0615 -0.0698,0.0147 -0.13527,0.0552 -0.19782,0.0821 -0.12578,0.0501 -0.23259,0.12447 -0.32441,0.17271 -0.1826,0.1265 -0.28928,0.19045 -0.28928,0.19045"
       style="fill:#ffffff;fill-opacity:1;fill-rule:nonzero;stroke:none;stroke-width:0.14133"
       id="path104183" />
  </g>
</svg>
